<svg xmlns="http://www.w3.org/2000/svg" viewBox="0 0 512 512" class="w-full h-full" shape-rendering="crispEdges">
    <defs>
    <linearGradient id="bg_badge_1632" x1="0%" y1="0%" x2="100%" y2="100%">
        <stop offset="0%" stop-color="#312e81" />
        <stop offset="55%" stop-color="#1e1b4b" />
        <stop offset="100%" stop-color="#0f172a" />
    </linearGradient>
    <linearGradient id="hull_badge_1632" x1="0%" y1="0%" x2="100%" y2="0%">
        <stop offset="0%" stop-color="#2a2a35" />
        <stop offset="50%" stop-color="#3a3a45" />
        <stop offset="100%" stop-color="#1a1a25" />
    </linearGradient>
    <linearGradient id="frame_badge_1632" x1="0%" y1="0%" x2="100%" y2="100%">
        <stop offset="0%" stop-color="#a5b4fc" />
        <stop offset="50%" stop-color="#c4b5fd" />
        <stop offset="100%" stop-color="#f0abfc" />
    </linearGradient>
    <filter id="shadow_badge_1632" x="-50%" y="-50%" width="200%" height="200%">
        <feDropShadow dx="0" dy="4" stdDeviation="0" flood-color="#000" flood-opacity="0.6"/>
    </filter>
    <filter id="glow_badge_1632">
        <feGaussianBlur stdDeviation="1" result="blur"/>
        <feComposite in="SourceGraphic" in2="blur" operator="over"/>
    </filter>
    <filter id="text_glow_badge_1632" x="-50%" y="-50%" width="200%" height="200%">
        <feGaussianBlur stdDeviation="2" result="blur"/>
        <feMerge>
            <feMergeNode in="blur"/>
            <feMergeNode in="SourceGraphic"/>
        </feMerge>
    </filter>
    <clipPath id="clip_badge_1632">
        <circle cx="256" cy="256" r="240" />
    </clipPath>
</defs>

    <g clip-path="url(#clip_badge_1632)">
        <rect width="512" height="512" fill="url(#bg_badge_1632)" />
        <g fill="#ffffff" fill-opacity="0.95" shape-rendering="crispEdges">
            <rect x="136" y="186" width="4" height="4" />
<rect x="279" y="109" width="4" height="4" />
<rect x="117" y="136" width="4" height="4" />
<rect x="415" y="121" width="4" height="4" />
<rect x="369" y="166" width="4" height="4" />
<rect x="375" y="398" width="6" height="6" />
<rect x="18" y="261" width="6" height="6" />
<rect x="383" y="327" width="4" height="4" />
<rect x="298" y="278" width="4" height="4" />
<rect x="121" y="171" width="4" height="4" />
<rect x="343" y="132" width="4" height="4" />
<rect x="135" y="356" width="6" height="6" />
<rect x="89" y="215" width="4" height="4" />
<rect x="293" y="357" width="4" height="4" />
<rect x="440" y="323" width="4" height="4" />
<rect x="204" y="306" width="6" height="6" />
<rect x="153" y="107" width="6" height="6" />
<rect x="469" y="278" width="6" height="6" />
        </g>
        <g opacity="0.55" shape-rendering="crispEdges">
            <g fill="#ffc8dd">
    <rect x="64" y="108" width="40" height="12" />
    <rect x="80" y="96" width="48" height="12" />
    <rect x="96" y="120" width="24" height="12" />
    <rect x="368" y="140" width="44" height="12" />
    <rect x="348" y="152" width="64" height="12" />
    <rect x="388" y="128" width="20" height="12" />
</g>
<g fill="#c4b5fd">
    <rect x="56" y="328" width="48" height="12" />
    <rect x="72" y="340" width="32" height="12" />
    <rect x="384" y="300" width="44" height="12" />
    <rect x="400" y="312" width="28" height="12" />
</g>
<g fill="url(#frame_badge_1632)" opacity="0.4">
    <rect x="148" y="70" width="8" height="8" />
    <rect x="356" y="88" width="8" height="8" />
    <rect x="112" y="268" width="8" height="8" />
    <rect x="300" y="240" width="8" height="8" />
</g>
        </g>
        <path d="M-100 438 Q256 374 612 438 V512 H-100 Z"
              fill="#a5b4fc" fill-opacity="0.32" />
    </g>

    <g transform="translate(256, 268) scale(1.1)"
       filter="url(#shadow_badge_1632)">
        <g transform="translate(16, 0)" shape-rendering="crispEdges">
    <rect x="-120" y="-20" width="200" height="40" fill="#050505"/>
    <rect x="-100" y="-32" width="140" height="12" fill="#050505"/>
    <rect x="-100" y="20" width="140" height="12" fill="#050505"/>
    <rect x="80" y="-12" width="56" height="24" fill="#050505"/>
    <rect x="128" y="-4" width="24" height="8" fill="#050505"/>
    <rect x="-96" y="-88" width="120" height="60" fill="#050505"/>
    <rect x="-96" y="28" width="120" height="60" fill="#050505"/>
    <rect x="-156" y="-28" width="40" height="20" fill="#050505"/>
    <rect x="-156" y="8" width="40" height="20" fill="#050505"/>
    <rect x="8" y="-44" width="56" height="28" fill="#050505"/>
    <rect x="-112" y="-12" width="184" height="24" fill="#3a3a48"/>
    <rect x="-92" y="-24" width="124" height="12" fill="#3a3a48"/>
    <rect x="-92" y="12" width="124" height="12" fill="#3a3a48"/>
    <rect x="72" y="-4" width="56" height="8" fill="#3a3a48"/>
    <rect x="120" y="0" width="24" height="4" fill="#a78bfa"/>
    <rect x="-100" y="-8" width="160" height="4" fill="#ffffff" opacity="0.35"/>
    <rect x="-88" y="-80" width="96" height="48" fill="#7c3aed"/>
    <rect x="-72" y="-88" width="64" height="12" fill="#5b21b6"/>
    <rect x="0" y="-64" width="32" height="24" fill="#a78bfa"/>
    <rect x="-80" y="-72" width="16" height="8" fill="#050505"/>
    <rect x="-88" y="32" width="96" height="48" fill="#7c3aed"/>
    <rect x="-72" y="76" width="64" height="12" fill="#5b21b6"/>
    <rect x="0" y="40" width="32" height="24" fill="#a78bfa"/>
    <rect x="-80" y="64" width="16" height="8" fill="#050505"/>
    <rect x="-48" y="-28" width="40" height="8" fill="#5b21b6" opacity="0.7"/>
    <rect x="-48" y="20" width="40" height="8" fill="#5b21b6" opacity="0.7"/>
    <rect x="-148" y="-20" width="32" height="12" fill="#7c3aed"/>
    <rect x="-148" y="8" width="32" height="12" fill="#7c3aed"/>
    <rect x="-156" y="-16" width="12" height="8" fill="#4c1d95"/>
    <rect x="-156" y="12" width="12" height="8" fill="#4c1d95"/>
    <rect x="-160" y="-12" width="8" height="4" fill="#a78bfa"/>
    <rect x="-160" y="16" width="8" height="4" fill="#a78bfa"/>
    <rect x="16" y="-36" width="40" height="20" fill="#a5b4fc"/>
    <rect x="24" y="-40" width="24" height="8" fill="#a5b4fc"/>
    <rect x="20" y="-32" width="12" height="8" fill="#e0f2fe" opacity="0.8"/>
    <rect x="40" y="-28" width="8" height="8" fill="#e0f2fe" opacity="0.5"/>
    <rect x="-8" y="-84" width="8" height="8" fill="#f472b6"/>
    <rect x="-8" y="76" width="8" height="8" fill="#f472b6"/>
    <rect x="24" y="-56" width="8" height="8" fill="#fbbf24"/>
    <rect x="24" y="48" width="8" height="8" fill="#fbbf24"/>
    <rect x="-188" y="-20" width="28" height="8" fill="#ff3d00" opacity="0.85"/>
    <rect x="-184" y="-16" width="18" height="4" fill="#fff59d" opacity="0.95"/>
    <rect x="-188" y="12" width="28" height="8" fill="#ff3d00" opacity="0.85"/>
    <rect x="-184" y="16" width="18" height="4" fill="#fff59d" opacity="0.95"/>
    <rect x="-196" y="-4" width="24" height="8" fill="#ff9100" opacity="0.7"/>
    <rect x="-32" y="-84" width="16" height="20" fill="#40e0d0" filter="url(#glow_badge_1632)"/>
    <rect x="-40" y="-92" width="32" height="8" fill="#050505"/>
    <rect x="-28" y="-100" width="8" height="8" fill="#a7f3d0"/>
    <rect x="-72" y="48" width="20" height="28" fill="#40e0d0" opacity="0.85"/>
    <rect x="-12" y="48" width="20" height="28" fill="#40e0d0" opacity="0.85"/>
    <rect x="-68" y="72" width="12" height="8" fill="#050505"/>
    <rect x="-8" y="72" width="12" height="8" fill="#050505"/>
</g>
    </g>

    <g filter="url(#glow_badge_1632)">
    <circle cx="256" cy="256" r="120" fill="none" stroke="url(#frame_badge_1632)" stroke-width="3" opacity="0.35" stroke-dasharray="6 8" /><circle cx="256" cy="256" r="160" fill="none" stroke="url(#frame_badge_1632)" stroke-width="2" opacity="0.25" stroke-dasharray="2 10" />
</g>

    <g shape-rendering="crispEdges">
        <circle cx="256" cy="256" r="238" fill="none" stroke="#818cf8" stroke-width="12" />
        <circle cx="256" cy="256" r="226" fill="none" stroke="#e0e7ff" stroke-width="10" />
        <circle cx="256" cy="256" r="214" fill="none" stroke="#4f46e5"
                stroke-width="8" stroke-dasharray="12 10" />
        <path d="M256 24 V48 M488 256 H464 M256 488 V464 M24 256 H48"
              stroke="#3b1d2f" stroke-width="8" opacity="0.45" />
    </g>

    <g shape-rendering="crispEdges" id="name_badge_1632">
  <rect x="118" y="72" width="276" height="44" fill="#0b1020" opacity="0.94"/>
  <rect x="124" y="66" width="264" height="10" fill="#f8fafc" opacity="0.2"/>
  <rect x="124" y="78" width="264" height="32" fill="#0b1020"/>
  <text x="256" y="101" font-family="Galmuri11, monospace" font-size="20" font-weight="bold"
        fill="#f8fafc" stroke="#0f0a2a" stroke-width="0.8" paint-order="stroke"
        text-anchor="middle" letter-spacing="1">MANTA</text>
</g>
    <g shape-rendering="crispEdges" id="grade_badge_1632">
  <rect x="86" y="348" width="64" height="48" fill="#3b1d2f" opacity="0.92"/>
  <rect x="90" y="352" width="56" height="40" fill="#ffcc80"/>
  <rect x="94" y="356" width="16" height="8" fill="#ffffff" opacity="0.35"/>
  <text x="118" y="382" font-family="Galmuri11, monospace" font-size="26" font-weight="bold"
        fill="#3b1d2f" text-anchor="middle">B</text>
</g>
    <g shape-rendering="crispEdges" id="enhance_badge_1632" filter="url(#text_glow_badge_1632)">
  <rect x="178" y="420" width="156" height="48" fill="#b45309"/>
  <rect x="186" y="408" width="140" height="56" fill="#fbbf24"/>
  <rect x="198" y="400" width="116" height="12" fill="#fef08a"/>
  <text x="256" y="448" font-family="Galmuri11, monospace" font-size="18" font-weight="bold"
        fill="#422006" stroke="#fffbeb" stroke-width="1" paint-order="stroke" text-anchor="middle" letter-spacing="2">+18</text>
</g>
</svg>