<svg xmlns="http://www.w3.org/2000/svg" viewBox="0 0 512 512" class="w-full h-full" shape-rendering="crispEdges">
    <defs>
    <linearGradient id="bg_badge_4796" x1="0%" y1="0%" x2="100%" y2="100%">
        <stop offset="0%" stop-color="#2563eb" />
        <stop offset="55%" stop-color="#1d4ed8" />
        <stop offset="100%" stop-color="#1e3a8a" />
    </linearGradient>
    <linearGradient id="hull_badge_4796" x1="0%" y1="0%" x2="100%" y2="0%">
        <stop offset="0%" stop-color="#112244" />
        <stop offset="50%" stop-color="#224488" />
        <stop offset="100%" stop-color="#001133" />
    </linearGradient>
    <linearGradient id="frame_badge_4796" x1="0%" y1="0%" x2="100%" y2="100%">
        <stop offset="0%" stop-color="#93c5fd" />
        <stop offset="50%" stop-color="#60a5fa" />
        <stop offset="100%" stop-color="#bfdbfe" />
    </linearGradient>
    <filter id="shadow_badge_4796" x="-50%" y="-50%" width="200%" height="200%">
        <feDropShadow dx="0" dy="4" stdDeviation="0" flood-color="#000" flood-opacity="0.6"/>
    </filter>
    <filter id="glow_badge_4796">
        <feGaussianBlur stdDeviation="1" result="blur"/>
        <feComposite in="SourceGraphic" in2="blur" operator="over"/>
    </filter>
    <filter id="text_glow_badge_4796" x="-50%" y="-50%" width="200%" height="200%">
        <feGaussianBlur stdDeviation="2" result="blur"/>
        <feMerge>
            <feMergeNode in="blur"/>
            <feMergeNode in="SourceGraphic"/>
        </feMerge>
    </filter>
    <clipPath id="clip_badge_4796">
        <circle cx="256" cy="256" r="240" />
    </clipPath>
</defs>

    <g clip-path="url(#clip_badge_4796)">
        <rect width="512" height="512" fill="url(#bg_badge_4796)" />
        <g fill="#ffffff" fill-opacity="0.95" shape-rendering="crispEdges">
            <rect x="55" y="213" width="4" height="4" />
<rect x="27" y="166" width="4" height="4" />
<rect x="95" y="341" width="4" height="4" />
<rect x="183" y="394" width="4" height="4" />
<rect x="430" y="69" width="4" height="4" />
<rect x="263" y="147" width="4" height="4" />
<rect x="141" y="160" width="4" height="4" />
<rect x="317" y="240" width="4" height="4" />
<rect x="45" y="296" width="4" height="4" />
<rect x="159" y="175" width="4" height="4" />
<rect x="172" y="286" width="4" height="4" />
<rect x="192" y="305" width="4" height="4" />
<rect x="420" y="131" width="4" height="4" />
<rect x="213" y="256" width="6" height="6" />
        </g>
        <g opacity="0.55" shape-rendering="crispEdges">
            <g fill="#ffc8dd">
    <rect x="64" y="108" width="40" height="12" />
    <rect x="80" y="96" width="48" height="12" />
    <rect x="96" y="120" width="24" height="12" />
    <rect x="368" y="140" width="44" height="12" />
    <rect x="348" y="152" width="64" height="12" />
    <rect x="388" y="128" width="20" height="12" />
</g>
<g fill="#c4b5fd">
    <rect x="56" y="328" width="48" height="12" />
    <rect x="72" y="340" width="32" height="12" />
    <rect x="384" y="300" width="44" height="12" />
    <rect x="400" y="312" width="28" height="12" />
</g>
<g fill="url(#frame_badge_4796)" opacity="0.4">
    <rect x="148" y="70" width="8" height="8" />
    <rect x="356" y="88" width="8" height="8" />
    <rect x="112" y="268" width="8" height="8" />
    <rect x="300" y="240" width="8" height="8" />
</g>
        </g>
        <path d="M-100 438 Q256 462 612 438 V512 H-100 Z"
              fill="#fdba74" fill-opacity="0.32" />
    </g>

    <g transform="translate(256, 268) scale(0.9)"
       filter="url(#shadow_badge_4796)">
        <g transform="translate(8, 0)" shape-rendering="crispEdges">
    <rect x="-168" y="-32" width="248" height="64" fill="#050505"/>
    <rect x="-152" y="-48" width="184" height="16" fill="#050505"/>
    <rect x="-152" y="32" width="184" height="16" fill="#050505"/>
    <rect x="80" y="-24" width="48" height="48" fill="#050505"/>
    <rect x="120" y="-16" width="32" height="32" fill="#050505"/>
    <rect x="144" y="-8" width="24" height="16" fill="#050505"/>
    <rect x="-196" y="-16" width="32" height="32" fill="#050505"/>
    <rect x="-140" y="-80" width="36" height="36" fill="#050505"/>
    <rect x="-140" y="44" width="36" height="36" fill="#050505"/>
    <rect x="-160" y="-24" width="232" height="48" fill="#c8daf8"/>
    <rect x="-144" y="-40" width="168" height="16" fill="#c8daf8"/>
    <rect x="-144" y="24" width="168" height="16" fill="#c8daf8"/>
    <rect x="72" y="-16" width="48" height="32" fill="#c8daf8"/>
    <rect x="112" y="-8" width="32" height="16" fill="#c8daf8"/>
    <rect x="136" y="0" width="24" height="8" fill="#ff7043"/>
    <rect x="-140" y="-20" width="180" height="8" fill="#ffffff" opacity="0.3"/>
    <rect x="-148" y="12" width="200" height="8" fill="#1a1a22" opacity="0.15"/>
    <rect x="-100" y="-24" width="12" height="48" fill="#ffcc80"/>
    <rect x="-40" y="-24" width="12" height="48" fill="#ffcc80"/>
    <rect x="20" y="-24" width="12" height="48" fill="#ffcc80"/>
    <rect x="-132" y="-72" width="24" height="28" fill="#ff7043"/>
    <rect x="-124" y="-80" width="12" height="12" fill="#ffab91"/>
    <rect x="-132" y="44" width="24" height="28" fill="#ff7043"/>
    <rect x="-124" y="64" width="12" height="12" fill="#050505"/>
    <rect x="-20" y="-48" width="40" height="8" fill="#ff7043"/>
    <rect x="-20" y="40" width="40" height="8" fill="#ff7043"/>
    <rect x="-188" y="-8" width="28" height="16" fill="#ff7043"/>
    <rect x="-180" y="-16" width="16" height="32" fill="#bf360c"/>
    <rect x="-192" y="-4" width="8" height="8" fill="#ffab91"/>
    <rect x="40" y="-16" width="40" height="24" fill="#050505"/>
    <rect x="44" y="-12" width="32" height="16" fill="#93c5fd"/>
    <rect x="48" y="-12" width="8" height="8" fill="#e0f2fe" opacity="0.75"/>
    <rect x="-72" y="-8" width="16" height="16" fill="#050505"/>
    <rect x="-68" y="-4" width="8" height="8" fill="#2f7fd8"/>
    <rect x="-8" y="-8" width="16" height="16" fill="#050505"/>
    <rect x="-4" y="-4" width="8" height="8" fill="#2f7fd8"/>
    <rect x="-236" y="-12" width="36" height="8" fill="#ff3d00" opacity="0.85"/>
    <rect x="-236" y="-4" width="32" height="8" fill="#ff9100" opacity="0.95"/>
    <rect x="-236" y="4" width="24" height="8" fill="#ff9100" opacity="0.9"/>
    <rect x="-232" y="-4" width="12" height="8" fill="#fff59d" opacity="0.98"/>
    <rect x="-228" y="-8" width="8" height="4" fill="#ffffff" opacity="0.7"/>
</g>
    </g>

    

    <g shape-rendering="crispEdges">
        <circle cx="256" cy="256" r="238" fill="none" stroke="#f97316" stroke-width="12" />
        <circle cx="256" cy="256" r="226" fill="none" stroke="#ffedd5" stroke-width="10" />
        <circle cx="256" cy="256" r="214" fill="none" stroke="#ea580c"
                stroke-width="8" stroke-dasharray="12 10" />
        <path d="M256 24 V48 M488 256 H464 M256 488 V464 M24 256 H48"
              stroke="#3b1d2f" stroke-width="8" opacity="0.45" />
    </g>

    <g shape-rendering="crispEdges" id="name_badge_4796">
  <rect x="118" y="72" width="276" height="44" fill="#7c2d12" opacity="0.94"/>
  <rect x="124" y="66" width="264" height="10" fill="#fff7ed" opacity="0.2"/>
  <rect x="124" y="78" width="264" height="32" fill="#7c2d12"/>
  <text x="256" y="101" font-family="Galmuri11, monospace" font-size="20" font-weight="bold"
        fill="#fff7ed" stroke="#431407" stroke-width="0.8" paint-order="stroke"
        text-anchor="middle" letter-spacing="1">ION-FALCON</text>
</g>
    <g shape-rendering="crispEdges" id="grade_badge_4796">
  <rect x="86" y="348" width="64" height="48" fill="#3b1d2f" opacity="0.92"/>
  <rect x="90" y="352" width="56" height="40" fill="#a5d6a7"/>
  <rect x="94" y="356" width="16" height="8" fill="#ffffff" opacity="0.35"/>
  <text x="118" y="382" font-family="Galmuri11, monospace" font-size="26" font-weight="bold"
        fill="#3b1d2f" text-anchor="middle">E</text>
</g>
    <g shape-rendering="crispEdges" id="enhance_badge_4796">
  <rect x="178" y="420" width="156" height="48" fill="#475569"/>
  <rect x="186" y="408" width="140" height="56" fill="#94a3b8"/>
  <rect x="198" y="400" width="116" height="12" fill="#e2e8f0"/>
  <text x="256" y="448" font-family="Galmuri11, monospace" font-size="16" font-weight="bold"
        fill="#0f172a" text-anchor="middle" letter-spacing="2">+3</text>
</g>
</svg>