<svg xmlns="http://www.w3.org/2000/svg" viewBox="0 0 512 512" class="w-full h-full" shape-rendering="crispEdges">
    <defs>
    <linearGradient id="bg_badge_305" x1="0%" y1="0%" x2="100%" y2="100%">
        <stop offset="0%" stop-color="#fbbf24" />
        <stop offset="55%" stop-color="#f59e0b" />
        <stop offset="100%" stop-color="#d97706" />
    </linearGradient>
    <linearGradient id="hull_badge_305" x1="0%" y1="0%" x2="100%" y2="0%">
        <stop offset="0%" stop-color="#d4af37" />
        <stop offset="50%" stop-color="#fcf6ba" />
        <stop offset="100%" stop-color="#aa8822" />
    </linearGradient>
    <linearGradient id="frame_badge_305" x1="0%" y1="0%" x2="100%" y2="100%">
        <stop offset="0%" stop-color="#fde68a" />
        <stop offset="50%" stop-color="#fcd34d" />
        <stop offset="100%" stop-color="#fef3c7" />
    </linearGradient>
    <filter id="shadow_badge_305" x="-50%" y="-50%" width="200%" height="200%">
        <feDropShadow dx="0" dy="4" stdDeviation="0" flood-color="#000" flood-opacity="0.6"/>
    </filter>
    <filter id="glow_badge_305">
        <feGaussianBlur stdDeviation="1" result="blur"/>
        <feComposite in="SourceGraphic" in2="blur" operator="over"/>
    </filter>
    <filter id="text_glow_badge_305" x="-50%" y="-50%" width="200%" height="200%">
        <feGaussianBlur stdDeviation="2" result="blur"/>
        <feMerge>
            <feMergeNode in="blur"/>
            <feMergeNode in="SourceGraphic"/>
        </feMerge>
    </filter>
    <clipPath id="clip_badge_305">
        <circle cx="256" cy="256" r="240" />
    </clipPath>
</defs>

    <g clip-path="url(#clip_badge_305)">
        <rect width="512" height="512" fill="url(#bg_badge_305)" />
        <g fill="#ffffff" fill-opacity="0.95" shape-rendering="crispEdges">
            <rect x="209" y="112" width="4" height="4" />
<rect x="135" y="313" width="4" height="4" />
<rect x="199" y="286" width="4" height="4" />
<rect x="466" y="216" width="4" height="4" />
<rect x="310" y="118" width="6" height="6" />
<rect x="195" y="179" width="4" height="4" />
<rect x="89" y="277" width="6" height="6" />
<rect x="178" y="380" width="4" height="4" />
<rect x="387" y="208" width="4" height="4" />
<rect x="145" y="42" width="4" height="4" />
<rect x="490" y="232" width="4" height="4" />
<rect x="448" y="257" width="6" height="6" />
<rect x="187" y="117" width="6" height="6" />
<rect x="93" y="325" width="4" height="4" />
<rect x="487" y="379" width="4" height="4" />
<rect x="33" y="48" width="4" height="4" />
        </g>
        <g opacity="0.55" shape-rendering="crispEdges">
            <g fill="#ffc8dd">
    <rect x="70" y="116" width="44" height="16" />
    <rect x="86" y="100" width="54" height="16" />
    <rect x="376" y="146" width="48" height="16" />
    <rect x="352" y="162" width="72" height="16" />
</g>
<g fill="#cdb4db">
    <rect x="64" y="336" width="56" height="16" />
    <rect x="392" y="314" width="48" height="16" />
</g>
<g fill="url(#frame_badge_305)" opacity="0.45">
    <rect x="142" y="74" width="8" height="8" />
    <rect x="362" y="92" width="8" height="8" />
    <rect x="118" y="270" width="8" height="8" />
</g>
        </g>
        <path d="M-100 438 Q256 462 612 438 V512 H-100 Z"
              fill="#fdba74" fill-opacity="0.32" />
    </g>

    <g transform="translate(256, 268) scale(0.9)"
       filter="url(#shadow_badge_305)">
        <g transform="translate(34, -2)" shape-rendering="crispEdges">
    <rect x="-124" y="-56" width="132" height="16" fill="#050505"/>
    <rect x="-148" y="-40" width="204" height="16" fill="#050505"/>
    <rect x="-164" y="-24" width="244" height="48" fill="#050505"/>
    <rect x="-148" y="24" width="204" height="16" fill="#050505"/>
    <rect x="-116" y="40" width="132" height="16" fill="#050505"/>
    <rect x="80" y="-8" width="24" height="16" fill="#050505"/>
    <rect x="-188" y="-8" width="24" height="16" fill="#050505"/>
    <rect x="-116" y="-40" width="120" height="16" fill="#fffaf2"/>
    <rect x="-140" y="-24" width="188" height="48" fill="#fffaf2"/>
    <rect x="-116" y="24" width="120" height="16" fill="#fffaf2"/>
    <rect x="48" y="-8" width="32" height="16" fill="#fffaf2"/>
    <rect x="-164" y="-56" width="56" height="32" fill="#ff7043"/>
    <rect x="-172" y="-48" width="16" height="16" fill="#050505"/>
    <rect x="-164" y="24" width="56" height="32" fill="#ff7043"/>
    <rect x="-172" y="40" width="16" height="16" fill="#050505"/>
    <rect x="-188" y="-8" width="52" height="24" fill="#ff7043"/>
    <rect x="80" y="-16" width="32" height="32" fill="#ff7043"/>
    <rect x="112" y="-8" width="16" height="16" fill="#050505"/>
    <rect x="-36" y="-56" width="76" height="16" fill="#050505"/>
    <rect x="-52" y="-40" width="108" height="16" fill="#050505"/>
    <rect x="-52" y="-24" width="124" height="32" fill="#050505"/>
    <rect x="-36" y="8" width="92" height="16" fill="#050505"/>
    <rect x="-28" y="-40" width="60" height="16" fill="#93c5fd"/>
    <rect x="-44" y="-24" width="100" height="32" fill="#93c5fd"/>
    <rect x="-28" y="8" width="68" height="8" fill="#93c5fd"/>
    <rect x="16" y="-32" width="16" height="16" fill="#b8d8ff" opacity="0.9"/>
    <rect x="32" y="-16" width="16" height="16" fill="#b8d8ff" opacity="0.75"/>
    <rect x="-72" y="8" width="24" height="24" fill="#2f7fd8"/>
    <rect x="-64" y="0" width="24" height="24" fill="#050505"/>
    <rect x="-60" y="4" width="16" height="16" fill="#2f7fd8"/>
    <rect x="-28" y="8" width="24" height="24" fill="#2f7fd8"/>
    <rect x="-20" y="0" width="24" height="24" fill="#050505"/>
    <rect x="-16" y="4" width="16" height="16" fill="#2f7fd8"/>
    <rect x="-148" y="-36" width="20" height="8" fill="#ff8080" opacity="0.8"/>
    <rect x="-132" y="32" width="20" height="8" fill="#ff8080" opacity="0.7"/>
    <rect x="58" y="-4" width="12" height="8" fill="#ffd6d6" opacity="0.75"/>
    <rect x="-216" y="-4" width="28" height="8" fill="#ff6d00" opacity="0.9"/>
    <rect x="-216" y="8" width="16" height="8" fill="#ffd54f" opacity="0.95"/>
    <rect x="-92" y="-64" width="16" height="24" fill="#40e0d0" filter="url(#glow_badge_305)"/>
    <rect x="-100" y="-72" width="32" height="8" fill="#050505"/>
    <rect x="-168" y="-72" width="40" height="16" fill="#ff7043"/>
    <rect x="-168" y="56" width="40" height="16" fill="#ff7043"/>
</g>
    </g>

    <g filter="url(#glow_badge_305)">
    <circle cx="256" cy="256" r="120" fill="none" stroke="url(#frame_badge_305)" stroke-width="3" opacity="0.35" stroke-dasharray="6 8" />
</g>

    <g shape-rendering="crispEdges">
        <circle cx="256" cy="256" r="238" fill="none" stroke="#f97316" stroke-width="12" />
        <circle cx="256" cy="256" r="226" fill="none" stroke="#ffedd5" stroke-width="10" />
        <circle cx="256" cy="256" r="214" fill="none" stroke="#ea580c"
                stroke-width="8" stroke-dasharray="12 10" />
        <path d="M256 24 V48 M488 256 H464 M256 488 V464 M24 256 H48"
              stroke="#3b1d2f" stroke-width="8" opacity="0.45" />
    </g>

    <g shape-rendering="crispEdges" id="name_badge_305">
  <rect x="118" y="72" width="276" height="44" fill="#78350f" opacity="0.94"/>
  <rect x="124" y="66" width="264" height="10" fill="#fffbeb" opacity="0.2"/>
  <rect x="124" y="78" width="264" height="32" fill="#78350f"/>
  <text x="256" y="101" font-family="Galmuri11, monospace" font-size="20" font-weight="bold"
        fill="#fffbeb" stroke="#431407" stroke-width="0.8" paint-order="stroke"
        text-anchor="middle" letter-spacing="1">NOVA</text>
</g>
    <g shape-rendering="crispEdges" id="grade_badge_305">
  <rect x="86" y="348" width="64" height="48" fill="#3b1d2f" opacity="0.92"/>
  <rect x="90" y="352" width="56" height="40" fill="#ff8a80"/>
  <rect x="94" y="356" width="16" height="8" fill="#ffffff" opacity="0.35"/>
  <text x="118" y="382" font-family="Galmuri11, monospace" font-size="26" font-weight="bold"
        fill="#3b1d2f" text-anchor="middle">S</text>
</g>
    <g shape-rendering="crispEdges" id="enhance_badge_305">
  <rect x="178" y="420" width="156" height="48" fill="#0e7490"/>
  <rect x="186" y="408" width="140" height="56" fill="#22d3ee"/>
  <rect x="198" y="400" width="116" height="12" fill="#a5f3fc"/>
  <text x="256" y="448" font-family="Galmuri11, monospace" font-size="17" font-weight="bold"
        fill="#083344" stroke="#ecfeff" stroke-width="1" paint-order="stroke" text-anchor="middle" letter-spacing="2">+5</text>
</g>
</svg>